<svg xmlns="http://www.w3.org/2000/svg" xmlns:xlink="http://www.w3.org/1999/xlink" style="display:none"><symbol  viewBox='0 0 48 48' id='icon-address_book'>
    <path fill="#673AB7" d="M38 44H12V4h26c2.2 0 4 1.8 4 4v32c0 2.2-1.8 4-4 4z"></path><path fill="#311B92" d="M10 4h2v40h-2c-2.2 0-4-1.8-4-4V8c0-2.2 1.8-4 4-4z"></path><path fill="#fff" d="M36 24.2c-.1 4.8-3.1 6.9-5.3 6.7-.6-.1-2.1-.1-2.9-1.6-.8 1-1.8 1.6-3.1 1.6-2.6 0-3.3-2.5-3.4-3.1-.1-.7-.2-1.4-.1-2.2.1-1 1.1-6.5 5.7-6.5 2.2 0 3.5 1.1 3.7 1.3l-.6 6.8c0 .3-.2 1.6 1.1 1.6 2.1 0 2.4-3.9 2.4-4.6.1-1.2.3-8.2-7-8.2-6.9 0-7.9 7.4-8 9.2-.5 8.5 6 8.5 7.2 8.5 1.7 0 3.7-.7 3.9-.8l.4 2c-.3.2-2 1.1-4.4 1.1-2.2 0-10.1-.4-9.8-10.8.3-2.1 1.6-11.2 10.8-11.2 9.2 0 9.4 8.1 9.4 10.2zm-11.9 1.3c-.1 1 0 1.8.2 2.3.2.5.6.8 1.2.8.1 0 .3 0 .4-.1.2-.1.3-.1.5-.3.2-.1.3-.3.5-.6.2-.2.3-.6.4-1l.5-5.4c-.2-.1-.5-.1-.7-.1-.5 0-.9.1-1.2.3-.3.2-.6.5-.9.8-.2.4-.4.8-.6 1.3s-.2 1.3-.3 2z"></path>
  </symbol><symbol  viewBox='0 0 48 48' id='icon-assistant'>
    <g fill="#FFA726"><circle cx="10" cy="26" r="4"></circle><circle cx="38" cy="26" r="4"></circle></g><path fill="#FFB74D" d="M39 19c0-12.7-30-8.3-30 0v10c0 8.3 6.7 15 15 15s15-6.7 15-15V19z"></path><path fill="currentColor" d="M24 3C14.6 3 7 10.6 7 20v3.4L9 25v-3l21-9.8 9 9.8v3l2-1.6V20c0-8-5.7-17-17-17z"></path><circle cx="31" cy="26" r="2"></circle><circle cx="17" cy="26" r="2"></circle><path fill="#757575" d="M43 24c-.6 0-1 .4-1 1v-7c0-8.8-7.2-16-16-16h-7c-.6 0-1 .4-1 1s.4 1 1 1h7c7.7 0 14 6.3 14 14v10c0 .6.4 1 1 1s1-.4 1-1v2c0 3.9-3.1 7-7 7H24c-.6 0-1 .4-1 1s.4 1 1 1h11c5 0 9-4 9-9v-5c0-.6-.4-1-1-1z"></path><g fill="var(--primary-color)"><path d="M43 22h-1c-1.1 0-2 .9-2 2v4c0 1.1.9 2 2 2h1c1.1 0 2-.9 2-2v-4c0-1.1-.9-2-2-2z"></path><circle cx="24" cy="38" r="2"></circle></g>
  </symbol></svg>